<?xml version="1.0" encoding="UTF-8" standalone="no"?>
<!-- Created with Inkscape (http://www.inkscape.org/) -->

<svg
   xmlns:dc="http://purl.org/dc/elements/1.1/"
   xmlns:cc="http://creativecommons.org/ns#"
   xmlns:rdf="http://www.w3.org/1999/02/22-rdf-syntax-ns#"
   xmlns:svg="http://www.w3.org/2000/svg"
   xmlns="http://www.w3.org/2000/svg"
   xmlns:sodipodi="http://sodipodi.sourceforge.net/DTD/sodipodi-0.dtd"
   xmlns:inkscape="http://www.inkscape.org/namespaces/inkscape"
   width="744.09448819"
   height="1052.3622047"
   id="svg2"
   version="1.1"
   inkscape:version="0.48.4 r9939"
   sodipodi:docname="potato1.svg"
   inkscape:export-filename="C:\Users\Zoltan Toth-Czifra\Desktop\jatek1\potato1.png"
   inkscape:export-xdpi="27.87215"
   inkscape:export-ydpi="27.87215">
  <defs
     id="defs4" />
  <sodipodi:namedview
     id="base"
     pagecolor="#ffffff"
     bordercolor="#666666"
     borderopacity="1.0"
     inkscape:pageopacity="0.0"
     inkscape:pageshadow="2"
     inkscape:zoom="0.7"
     inkscape:cx="159.31562"
     inkscape:cy="779.9282"
     inkscape:document-units="px"
     inkscape:current-layer="layer1"
     showgrid="false"
     inkscape:window-width="1600"
     inkscape:window-height="838"
     inkscape:window-x="-8"
     inkscape:window-y="-8"
     inkscape:window-maximized="1" />
  <metadata
     id="metadata7">
    <rdf:RDF>
      <cc:Work
         rdf:about="">
        <dc:format>image/svg+xml</dc:format>
        <dc:type
           rdf:resource="http://purl.org/dc/dcmitype/StillImage" />
        <dc:title></dc:title>
      </cc:Work>
    </rdf:RDF>
  </metadata>
  <g
     inkscape:label="Layer 1"
     inkscape:groupmode="layer"
     id="layer1">
    <path
       style="color:#000000;fill:#b56e11;fill-opacity:1;fill-rule:nonzero;stroke:#000000;stroke-width:15;stroke-opacity:1;marker:none;visibility:visible;display:inline;overflow:visible;enable-background:accumulate"
       d="m 539.59388,396.05617 c 0,105.72308 -83.85269,170.21537 -193.52066,170.21537 -109.66797,0 -186.01287,-26.45019 -194.53082,-131.82957 -8.08122,-99.97639 73.70569,-128.43805 106.10644,-198.56725 27.56945,-59.67218 10.09413,-145.39436 127.82033,-145.39436 67.24156,0 154.12471,199.85273 154.12471,305.57581 z"
       id="path2985"
       inkscape:connector-curvature="0"
       sodipodi:nodetypes="ssssss" />
    <path
       style="color:#000000;fill:#dd8a25;fill-opacity:1;fill-rule:nonzero;stroke:none;stroke-width:11.35843372;marker:none;visibility:visible;display:inline;overflow:visible;enable-background:accumulate"
       d="m 511.29331,359.01501 c 0,90.84939 -63.49569,146.26854 -146.53945,146.26854 -83.04375,0 -140.85431,-22.72904 -147.30435,-113.28306 -6.11934,-85.91117 55.81208,-110.36869 80.34686,-170.63173 20.87638,-51.27716 7.64356,-124.939477 96.78925,-124.939477 50.91725,0 116.70769,171.736357 116.70769,262.585727 z"
       id="path2985-4"
       inkscape:connector-curvature="0"
       sodipodi:nodetypes="ssssss" />
    <path
       sodipodi:type="arc"
       style="color:#000000;fill:#ffffff;fill-opacity:1;fill-rule:nonzero;stroke:none;stroke-width:15;marker:none;visibility:visible;display:inline;overflow:visible;enable-background:accumulate"
       id="path3805"
       sodipodi:cx="386.42856"
       sodipodi:cy="281.64789"
       sodipodi:rx="46.42857"
       sodipodi:ry="56.42857"
       d="m 432.85713,281.64789 a 46.42857,56.42857 0 1 1 -92.85714,0 46.42857,56.42857 0 1 1 92.85714,0 z"
       transform="translate(0,-28)" />
    <path
       sodipodi:type="arc"
       style="color:#000000;fill:#000000;fill-opacity:1;fill-rule:nonzero;stroke:none;stroke-width:15;marker:none;visibility:visible;display:inline;overflow:visible;enable-background:accumulate"
       id="path3807"
       sodipodi:cx="365.71429"
       sodipodi:cy="382.36218"
       sodipodi:rx="15.714286"
       sodipodi:ry="18.571428"
       d="m 381.42858,382.36218 a 15.714286,18.571428 0 1 1 -31.42857,0 15.714286,18.571428 0 1 1 31.42857,0 z"
       transform="translate(24.285714,-106)" />
    <path
       transform="matrix(0.84615384,0,0,0.83544303,117.30771,27.775702)"
       sodipodi:type="arc"
       style="color:#000000;fill:#ffffff;fill-opacity:1;fill-rule:nonzero;stroke:none;stroke-width:15;marker:none;visibility:visible;display:inline;overflow:visible;enable-background:accumulate"
       id="path3805-0"
       sodipodi:cx="386.42856"
       sodipodi:cy="281.64789"
       sodipodi:rx="46.42857"
       sodipodi:ry="56.42857"
       d="m 432.85713,281.64789 a 46.42857,56.42857 0 1 1 -92.85714,0 46.42857,56.42857 0 1 1 92.85714,0 z" />
    <path
       sodipodi:type="arc"
       style="color:#000000;fill:#000000;fill-opacity:1;fill-rule:nonzero;stroke:none;stroke-width:15;marker:none;visibility:visible;display:inline;overflow:visible;enable-background:accumulate"
       id="path3807-9"
       sodipodi:cx="365.71429"
       sodipodi:cy="382.36218"
       sodipodi:rx="15.714286"
       sodipodi:ry="18.571428"
       d="m 381.42858,382.36218 a 15.714286,18.571428 0 1 1 -31.42857,0 15.714286,18.571428 0 1 1 31.42857,0 z"
       transform="matrix(0.84615384,0,0,0.83544303,141.85716,-37.388851)" />
  </g>
</svg>
